<mxfile host="app.diagrams.net" agent="Mozilla/5.0 (Windows NT 10.0; Win64; x64) AppleWebKit/537.36 (KHTML, like Gecko) Chrome/135.0.0.0 Safari/537.36" version="26.2.13">
  <diagram name="PÃ¡gina-1" id="f3qLATBkcaTukcZaTDRv">
    <mxGraphModel dx="217" dy="483" grid="1" gridSize="10" guides="1" tooltips="1" connect="1" arrows="1" fold="1" page="1" pageScale="1" pageWidth="827" pageHeight="1169" math="0" shadow="0">
      <root>
        <mxCell id="0" />
        <mxCell id="1" parent="0" />
        <mxCell id="dehnaP_pg1LUR-T0AUh6-44" value="req ReqDiagram" style="shape=umlFrame;whiteSpace=wrap;html=1;pointerEvents=0;width=114;height=30;" parent="1" vertex="1">
          <mxGeometry x="1123" y="110" width="861" height="841" as="geometry" />
        </mxCell>
        <mxCell id="dehnaP_pg1LUR-T0AUh6-45" value="&lt;p style=&quot;margin:0px;margin-top:4px;text-align:center;&quot;&gt;&lt;i&gt;&amp;lt;&amp;lt;requirement&amp;gt;&amp;gt;&lt;/i&gt;&lt;br&gt;&lt;b&gt;Register Vehicle Type&lt;/b&gt;&lt;/p&gt;&lt;hr size=&quot;1&quot; style=&quot;border-style:solid;&quot;&gt;&lt;p style=&quot;margin:0px;margin-left:4px;&quot;&gt;Id=&quot;RVT-1&quot;&lt;/p&gt;&lt;p style=&quot;margin:0px;margin-left:4px;&quot;&gt;text=&quot;&lt;span id=&quot;docs-internal-guid-77a61280-7fff-54f6-0882-7d69787c15c0&quot;&gt;&lt;span style=&quot;font-family: Arial, sans-serif; background-color: transparent; font-variant-numeric: normal; font-variant-east-asian: normal; font-variant-alternates: normal; font-variant-position: normal; font-variant-emoji: normal; vertical-align: baseline; white-space-collapse: preserve;&quot;&gt;&lt;font&gt;The system shall allow the user to register the type of vehicle they are driving.&lt;/font&gt;&lt;/span&gt;&lt;/span&gt;&quot;&lt;/p&gt;" style="verticalAlign=top;align=left;overflow=fill;html=1;whiteSpace=wrap;" parent="1" vertex="1">
          <mxGeometry x="1463.5" y="471" width="180" height="120" as="geometry" />
        </mxCell>
        <mxCell id="dehnaP_pg1LUR-T0AUh6-46" style="edgeStyle=orthogonalEdgeStyle;rounded=0;orthogonalLoop=1;jettySize=auto;html=1;exitX=0.5;exitY=0;exitDx=0;exitDy=0;entryX=0.5;entryY=1;entryDx=0;entryDy=0;endArrow=circlePlus;endFill=0;" parent="1" source="dehnaP_pg1LUR-T0AUh6-61" target="dehnaP_pg1LUR-T0AUh6-45" edge="1">
          <mxGeometry relative="1" as="geometry" />
        </mxCell>
        <mxCell id="dehnaP_pg1LUR-T0AUh6-47" style="edgeStyle=orthogonalEdgeStyle;rounded=0;orthogonalLoop=1;jettySize=auto;html=1;exitX=0.5;exitY=0;exitDx=0;exitDy=0;endArrow=circlePlus;endFill=0;" parent="1" source="dehnaP_pg1LUR-T0AUh6-48" edge="1">
          <mxGeometry relative="1" as="geometry">
            <mxPoint x="1553.9999999999995" y="590.9999999999998" as="targetPoint" />
          </mxGeometry>
        </mxCell>
        <mxCell id="dehnaP_pg1LUR-T0AUh6-48" value="&lt;p style=&quot;margin:0px;margin-top:4px;text-align:center;&quot;&gt;&lt;i&gt;&amp;lt;&amp;lt;requirement&amp;gt;&amp;gt;&lt;/i&gt;&lt;br&gt;&lt;b&gt;Store Vehicle Attributes&lt;/b&gt;&lt;/p&gt;&lt;hr size=&quot;1&quot; style=&quot;border-style:solid;&quot;&gt;&lt;p style=&quot;margin:0px;margin-left:4px;&quot;&gt;Id=&quot;RVT-1.2&quot;&lt;/p&gt;&lt;p style=&quot;margin:0px;margin-left:4px;&quot;&gt;text=&quot;&lt;span id=&quot;docs-internal-guid-04b3c553-7fff-6470-7aba-5c54dcb6312d&quot;&gt;&lt;span style=&quot;font-family: Arial, sans-serif; background-color: transparent; font-variant-numeric: normal; font-variant-east-asian: normal; font-variant-alternates: normal; font-variant-position: normal; font-variant-emoji: normal; vertical-align: baseline; white-space-collapse: preserve;&quot;&gt;&lt;font&gt;The system shall store vehicle dimensions, fuel type, and restrictions based on the selected vehicle.&lt;/font&gt;&lt;/span&gt;&lt;/span&gt;&quot;&lt;/p&gt;" style="verticalAlign=top;align=left;overflow=fill;html=1;whiteSpace=wrap;" parent="1" vertex="1">
          <mxGeometry x="1364" y="654" width="180" height="120" as="geometry" />
        </mxCell>
        <mxCell id="dehnaP_pg1LUR-T0AUh6-49" style="edgeStyle=orthogonalEdgeStyle;rounded=0;orthogonalLoop=1;jettySize=auto;html=1;exitX=0.5;exitY=0;exitDx=0;exitDy=0;endArrow=circlePlus;endFill=0;" parent="1" edge="1">
          <mxGeometry relative="1" as="geometry">
            <mxPoint x="1553.9999999999995" y="590.9999999999998" as="targetPoint" />
            <mxPoint x="1654" y="654" as="sourcePoint" />
          </mxGeometry>
        </mxCell>
        <mxCell id="dehnaP_pg1LUR-T0AUh6-51" style="edgeStyle=orthogonalEdgeStyle;rounded=0;orthogonalLoop=1;jettySize=auto;html=1;exitX=0.5;exitY=0;exitDx=0;exitDy=0;endArrow=circlePlus;endFill=0;" parent="1" edge="1">
          <mxGeometry relative="1" as="geometry">
            <mxPoint x="1553.9999999999995" y="590.9999999999998" as="targetPoint" />
            <mxPoint x="1854" y="654" as="sourcePoint" />
          </mxGeometry>
        </mxCell>
        <mxCell id="dehnaP_pg1LUR-T0AUh6-55" style="edgeStyle=orthogonalEdgeStyle;rounded=0;orthogonalLoop=1;jettySize=auto;html=1;exitX=0.5;exitY=0;exitDx=0;exitDy=0;endArrow=circlePlus;endFill=0;" parent="1" source="dehnaP_pg1LUR-T0AUh6-56" edge="1">
          <mxGeometry relative="1" as="geometry">
            <mxPoint x="1553.9999999999995" y="590.9999999999998" as="targetPoint" />
            <Array as="points">
              <mxPoint x="1454" y="781" />
              <mxPoint x="1554" y="781" />
            </Array>
          </mxGeometry>
        </mxCell>
        <mxCell id="dehnaP_pg1LUR-T0AUh6-56" value="&lt;p style=&quot;margin:0px;margin-top:4px;text-align:center;&quot;&gt;&lt;i&gt;&amp;lt;&amp;lt;requirement&amp;gt;&amp;gt;&lt;/i&gt;&lt;br&gt;&lt;b&gt;Set Default Vehicle&lt;/b&gt;&lt;/p&gt;&lt;hr size=&quot;1&quot; style=&quot;border-style:solid;&quot;&gt;&lt;p style=&quot;margin:0px;margin-left:4px;&quot;&gt;Id=&quot;RVT-1.5&quot;&lt;/p&gt;&lt;p style=&quot;margin:0px;margin-left:4px;&quot;&gt;text=&quot;&lt;span id=&quot;docs-internal-guid-45e9479c-7fff-7b0d-f53c-1ce7f1da4f08&quot;&gt;&lt;span style=&quot;font-family: Arial, sans-serif; background-color: transparent; font-variant-numeric: normal; font-variant-east-asian: normal; font-variant-alternates: normal; font-variant-position: normal; font-variant-emoji: normal; vertical-align: baseline; white-space-collapse: preserve;&quot;&gt;&lt;font&gt;The user shall be able to set a default vehicle.&lt;/font&gt;&lt;/span&gt;&lt;/span&gt;&quot;&lt;/p&gt;" style="verticalAlign=top;align=left;overflow=fill;html=1;whiteSpace=wrap;" parent="1" vertex="1">
          <mxGeometry x="1364" y="794" width="180" height="120" as="geometry" />
        </mxCell>
        <mxCell id="dehnaP_pg1LUR-T0AUh6-57" style="edgeStyle=orthogonalEdgeStyle;rounded=0;orthogonalLoop=1;jettySize=auto;html=1;exitX=0.5;exitY=0;exitDx=0;exitDy=0;endArrow=circlePlus;endFill=0;" parent="1" target="dehnaP_pg1LUR-T0AUh6-45" edge="1">
          <mxGeometry relative="1" as="geometry">
            <mxPoint x="1553.9999999999995" y="600.9999999999998" as="targetPoint" />
            <Array as="points">
              <mxPoint x="1654" y="781" />
              <mxPoint x="1554" y="781" />
            </Array>
            <mxPoint x="1654" y="794" as="sourcePoint" />
          </mxGeometry>
        </mxCell>
        <mxCell id="dehnaP_pg1LUR-T0AUh6-61" value="&lt;p style=&quot;margin:0px;margin-top:4px;text-align:center;&quot;&gt;&lt;i&gt;&amp;lt;&amp;lt;requirement&amp;gt;&amp;gt;&lt;/i&gt;&lt;br&gt;&lt;b&gt;Select Vehicle Type&lt;/b&gt;&lt;/p&gt;&lt;hr size=&quot;1&quot; style=&quot;border-style:solid;&quot;&gt;&lt;p style=&quot;margin:0px;margin-left:4px;&quot;&gt;Id=&quot;RVT-1.1&quot;&lt;/p&gt;&lt;p style=&quot;margin:0px;margin-left:4px;&quot;&gt;text=&quot;&lt;span id=&quot;docs-internal-guid-57e189c5-7fff-bfe4-1274-18db51c3f75c&quot;&gt;&lt;span style=&quot;font-family: Arial, sans-serif; background-color: transparent; font-variant-numeric: normal; font-variant-east-asian: normal; font-variant-alternates: normal; font-variant-position: normal; font-variant-emoji: normal; vertical-align: baseline; white-space-collapse: preserve;&quot;&gt;&lt;font&gt;The system shall provide a selection of vehicle types (e.g., car, motorcycle, truck, electric vehicle).&lt;/font&gt;&lt;/span&gt;&lt;/span&gt;&quot;&lt;/p&gt;" style="verticalAlign=top;align=left;overflow=fill;html=1;whiteSpace=wrap;" parent="1" vertex="1">
          <mxGeometry x="1164" y="654" width="180" height="120" as="geometry" />
        </mxCell>
        <mxCell id="8ABhRaF24-DggMUwI4sx-49" style="edgeStyle=orthogonalEdgeStyle;rounded=0;orthogonalLoop=1;jettySize=auto;html=1;endArrow=circlePlus;endFill=0;" parent="1" source="i6ZJOgzF8YybaFs0jAJF-49" target="dehnaP_pg1LUR-T0AUh6-45" edge="1">
          <mxGeometry relative="1" as="geometry">
            <mxPoint x="1550" y="470" as="targetPoint" />
            <Array as="points">
              <mxPoint x="1254" y="290" />
              <mxPoint x="1554" y="290" />
            </Array>
          </mxGeometry>
        </mxCell>
        <mxCell id="i6ZJOgzF8YybaFs0jAJF-49" value="&lt;p style=&quot;margin:0px;margin-top:4px;text-align:center;&quot;&gt;&lt;i&gt;&amp;lt;&amp;lt;requirement&amp;gt;&amp;gt;&lt;/i&gt;&lt;br&gt;&lt;b&gt;Responsive Interface&lt;/b&gt;&lt;/p&gt;&lt;hr size=&quot;1&quot; style=&quot;border-style:solid;&quot;&gt;&lt;p style=&quot;margin:0px;margin-left:4px;&quot;&gt;Id=&quot;NFR-2.1&quot;&lt;/p&gt;&lt;p style=&quot;margin:0px;margin-left:4px;&quot;&gt;text=&quot;The UI shall be responsive and intuitive on both Android and iOS platforms.&quot;&lt;/p&gt;" style="verticalAlign=top;align=left;overflow=fill;html=1;whiteSpace=wrap;" parent="1" vertex="1">
          <mxGeometry x="1164" y="160" width="180" height="120" as="geometry" />
        </mxCell>
        <mxCell id="8ABhRaF24-DggMUwI4sx-44" style="edgeStyle=orthogonalEdgeStyle;rounded=0;orthogonalLoop=1;jettySize=auto;html=1;entryX=0.5;entryY=0;entryDx=0;entryDy=0;endArrow=circlePlus;endFill=0;" parent="1" source="i6ZJOgzF8YybaFs0jAJF-50" target="dehnaP_pg1LUR-T0AUh6-45" edge="1">
          <mxGeometry relative="1" as="geometry">
            <Array as="points">
              <mxPoint x="1254" y="440" />
              <mxPoint x="1554" y="440" />
            </Array>
          </mxGeometry>
        </mxCell>
        <mxCell id="i6ZJOgzF8YybaFs0jAJF-50" value="&lt;p style=&quot;margin:0px;margin-top:4px;text-align:center;&quot;&gt;&lt;i&gt;&amp;lt;&amp;lt;requirement&amp;gt;&amp;gt;&lt;/i&gt;&lt;br&gt;&lt;b&gt;Accessibility Support&lt;/b&gt;&lt;/p&gt;&lt;hr size=&quot;1&quot; style=&quot;border-style:solid;&quot;&gt;&lt;p style=&quot;margin:0px;margin-left:4px;&quot;&gt;Id=&quot;NFR-2.2&quot;&lt;/p&gt;&lt;p style=&quot;margin:0px;margin-left:4px;&quot;&gt;text=&quot;The system shall support accessibility features (e.g., voice navigation, screen readers).&quot;&lt;/p&gt;" style="verticalAlign=top;align=left;overflow=fill;html=1;whiteSpace=wrap;" parent="1" vertex="1">
          <mxGeometry x="1164" y="300" width="180" height="120" as="geometry" />
        </mxCell>
        <mxCell id="8ABhRaF24-DggMUwI4sx-50" style="edgeStyle=orthogonalEdgeStyle;rounded=0;orthogonalLoop=1;jettySize=auto;html=1;endArrow=circlePlus;endFill=0;" parent="1" source="i6ZJOgzF8YybaFs0jAJF-52" target="dehnaP_pg1LUR-T0AUh6-45" edge="1">
          <mxGeometry relative="1" as="geometry">
            <Array as="points">
              <mxPoint x="1454" y="290" />
              <mxPoint x="1554" y="290" />
            </Array>
          </mxGeometry>
        </mxCell>
        <mxCell id="i6ZJOgzF8YybaFs0jAJF-52" value="&lt;p style=&quot;margin:0px;margin-top:4px;text-align:center;&quot;&gt;&lt;i&gt;&amp;lt;&amp;lt;requirement&amp;gt;&amp;gt;&lt;/i&gt;&lt;br&gt;&lt;b&gt;High Availability&lt;/b&gt;&lt;/p&gt;&lt;hr size=&quot;1&quot; style=&quot;border-style:solid;&quot;&gt;&lt;p style=&quot;margin:0px;margin-left:4px;&quot;&gt;Id=&quot;NFR-3.1&quot;&lt;/p&gt;&lt;p style=&quot;margin:0px;margin-left:4px;&quot;&gt;text=&quot;The system shall have 99.9% uptime.&quot;&lt;/p&gt;" style="verticalAlign=top;align=left;overflow=fill;html=1;whiteSpace=wrap;" parent="1" vertex="1">
          <mxGeometry x="1364" y="160" width="180" height="120" as="geometry" />
        </mxCell>
        <mxCell id="8ABhRaF24-DggMUwI4sx-48" style="edgeStyle=orthogonalEdgeStyle;rounded=0;orthogonalLoop=1;jettySize=auto;html=1;endArrow=circlePlus;endFill=0;" parent="1" target="dehnaP_pg1LUR-T0AUh6-45" edge="1">
          <mxGeometry relative="1" as="geometry">
            <Array as="points">
              <mxPoint x="1454" y="440" />
              <mxPoint x="1553" y="440" />
            </Array>
            <mxPoint x="1454" y="420" as="sourcePoint" />
          </mxGeometry>
        </mxCell>
        <mxCell id="8ABhRaF24-DggMUwI4sx-51" style="edgeStyle=orthogonalEdgeStyle;rounded=0;orthogonalLoop=1;jettySize=auto;html=1;endArrow=circlePlus;endFill=0;" parent="1" target="dehnaP_pg1LUR-T0AUh6-45" edge="1">
          <mxGeometry relative="1" as="geometry">
            <Array as="points">
              <mxPoint x="1654" y="290" />
              <mxPoint x="1554" y="290" />
            </Array>
            <mxPoint x="1654" y="280" as="sourcePoint" />
          </mxGeometry>
        </mxCell>
        <mxCell id="8ABhRaF24-DggMUwI4sx-47" style="edgeStyle=orthogonalEdgeStyle;rounded=0;orthogonalLoop=1;jettySize=auto;html=1;entryX=0.5;entryY=0;entryDx=0;entryDy=0;endArrow=circlePlus;endFill=0;" parent="1" target="dehnaP_pg1LUR-T0AUh6-45" edge="1">
          <mxGeometry relative="1" as="geometry">
            <Array as="points">
              <mxPoint x="1654" y="440" />
              <mxPoint x="1553" y="440" />
            </Array>
            <mxPoint x="1654" y="420" as="sourcePoint" />
          </mxGeometry>
        </mxCell>
        <mxCell id="8ABhRaF24-DggMUwI4sx-45" style="edgeStyle=orthogonalEdgeStyle;rounded=0;orthogonalLoop=1;jettySize=auto;html=1;entryX=0.5;entryY=0;entryDx=0;entryDy=0;endArrow=circlePlus;endFill=0;" parent="1" target="dehnaP_pg1LUR-T0AUh6-45" edge="1">
          <mxGeometry relative="1" as="geometry">
            <Array as="points">
              <mxPoint x="1854" y="440" />
              <mxPoint x="1554" y="440" />
            </Array>
            <mxPoint x="1854" y="420" as="sourcePoint" />
          </mxGeometry>
        </mxCell>
      </root>
    </mxGraphModel>
  </diagram>
</mxfile>
